<?xml version="1.0" encoding="utf-8"?>
<!-- Generator: Adobe Illustrator 25.4.1, SVG Export Plug-In . SVG Version: 6.00 Build 0)  -->
<svg version="1.1" id="Layer_1" xmlns="http://www.w3.org/2000/svg" xmlns:xlink="http://www.w3.org/1999/xlink" x="0px" y="0px"
	 viewBox="0 0 1024 1024" style="enable-background:new 0 0 1024 1024;" xml:space="preserve">
<style type="text/css">
	.st0{fill:#A3C7E5;stroke:#000000;stroke-width:14;stroke-miterlimit:10;}
	.st1{fill:#466CB4;stroke:#000000;stroke-width:14;stroke-miterlimit:10;}
	.st2{fill:#669DD4;stroke:#000000;stroke-width:14;stroke-miterlimit:10;}
	.st3{display:none;}
	.st4{display:inline;fill:none;stroke:#000000;stroke-width:5;stroke-miterlimit:10;}
	.st5{display:inline;fill:none;stroke:#000000;stroke-width:14;stroke-miterlimit:10;}
</style>
<g id="Layer_2_00000045611857934053325380000001269066644556416430_">
	<polygon class="st0" points="512.1,470.8 512.1,1006.4 26.7,780 26.7,244.4 	"/>
	<polygon class="st1" points="997.4,244.1 512,17.8 26.6,244.1 26.6,244.8 512,471.1 997.4,244.8 	"/>
	<polygon class="st2" points="512,471.1 512,1006.7 997.4,780.3 997.4,244.8 	"/>
</g>
<g id="Layer_1_00000027565766488758417820000002338607811739099291_" class="st3">
	<line class="st4" x1="194.3" y1="687.7" x2="194.3" y2="337.2"/>
	<line class="st4" x1="512" y1="835.9" x2="512" y2="485.3"/>
	<line class="st4" x1="512" y1="485.3" x2="194.3" y2="337.2"/>
	<line class="st4" x1="829.7" y1="336.7" x2="512" y2="188.6"/>
	<line class="st4" x1="512" y1="835.9" x2="194.3" y2="687.7"/>
	<line class="st4" x1="512" y1="485.3" x2="829.7" y2="337.2"/>
	<line class="st4" x1="194.3" y1="336.7" x2="512" y2="188.6"/>
	<line class="st4" x1="512" y1="835.9" x2="829.7" y2="687.7"/>
	<line class="st5" x1="829.7" y1="687.7" x2="829.7" y2="337.2"/>
</g>
</svg>
